<mxfile host="app.diagrams.net" modified="2023-05-07T06:56:58.394Z" agent="Mozilla/5.0 (Windows NT 10.0; Win64; x64) AppleWebKit/537.36 (KHTML, like Gecko) Chrome/112.0.0.0 Safari/537.36" etag="J506ch2t8XMU7lKcIQfG" version="21.2.9" type="device">
  <diagram id="R2lEEEUBdFMjLlhIrx00" name="Page-1">
    <mxGraphModel dx="1173" dy="635" grid="1" gridSize="11" guides="1" tooltips="1" connect="1" arrows="1" fold="1" page="1" pageScale="1" pageWidth="850" pageHeight="1100" math="0" shadow="0" extFonts="Permanent Marker^https://fonts.googleapis.com/css?family=Permanent+Marker">
      <root>
        <mxCell id="0" />
        <mxCell id="1" parent="0" />
        <mxCell id="N0MODksUTJpH7KnRYEey-1" value="User" style="rounded=1;arcSize=10;whiteSpace=wrap;html=1;align=center;" parent="1" vertex="1">
          <mxGeometry x="360" y="880" width="100" height="40" as="geometry" />
        </mxCell>
        <mxCell id="N0MODksUTJpH7KnRYEey-2" value="ISA" style="triangle;whiteSpace=wrap;html=1;direction=south;" parent="1" vertex="1">
          <mxGeometry x="370" y="960" width="80" height="60" as="geometry" />
        </mxCell>
        <mxCell id="N0MODksUTJpH7KnRYEey-7" value="" style="shape=link;html=1;rounded=0;entryX=0;entryY=0.5;entryDx=0;entryDy=0;exitX=0.5;exitY=1;exitDx=0;exitDy=0;" parent="1" source="N0MODksUTJpH7KnRYEey-1" target="N0MODksUTJpH7KnRYEey-2" edge="1">
          <mxGeometry relative="1" as="geometry">
            <mxPoint x="380" y="940" as="sourcePoint" />
            <mxPoint x="460" y="950" as="targetPoint" />
          </mxGeometry>
        </mxCell>
        <mxCell id="N0MODksUTJpH7KnRYEey-8" value="" style="resizable=0;html=1;align=right;verticalAlign=bottom;" parent="N0MODksUTJpH7KnRYEey-7" connectable="0" vertex="1">
          <mxGeometry x="1" relative="1" as="geometry">
            <mxPoint x="-40" y="10" as="offset" />
          </mxGeometry>
        </mxCell>
        <mxCell id="N0MODksUTJpH7KnRYEey-9" value="Agents" style="rounded=1;arcSize=10;whiteSpace=wrap;html=1;align=center;" parent="1" vertex="1">
          <mxGeometry x="160" y="1040" width="100" height="40" as="geometry" />
        </mxCell>
        <mxCell id="N0MODksUTJpH7KnRYEey-10" value="Perspective Renters" style="rounded=1;arcSize=10;whiteSpace=wrap;html=1;align=center;" parent="1" vertex="1">
          <mxGeometry x="560" y="1040" width="100" height="40" as="geometry" />
        </mxCell>
        <mxCell id="N0MODksUTJpH7KnRYEey-11" value="" style="endArrow=none;html=1;rounded=0;entryX=0.5;entryY=1;entryDx=0;entryDy=0;exitX=0.5;exitY=0;exitDx=0;exitDy=0;" parent="1" source="N0MODksUTJpH7KnRYEey-9" target="N0MODksUTJpH7KnRYEey-2" edge="1">
          <mxGeometry width="50" height="50" relative="1" as="geometry">
            <mxPoint x="440" y="930" as="sourcePoint" />
            <mxPoint x="490" y="880" as="targetPoint" />
            <Array as="points">
              <mxPoint x="210" y="990" />
            </Array>
          </mxGeometry>
        </mxCell>
        <mxCell id="N0MODksUTJpH7KnRYEey-13" value="" style="endArrow=none;html=1;rounded=0;exitX=0.5;exitY=0;exitDx=0;exitDy=0;entryX=0.5;entryY=0;entryDx=0;entryDy=0;" parent="1" source="N0MODksUTJpH7KnRYEey-10" target="N0MODksUTJpH7KnRYEey-2" edge="1">
          <mxGeometry width="50" height="50" relative="1" as="geometry">
            <mxPoint x="440" y="930" as="sourcePoint" />
            <mxPoint x="490" y="880" as="targetPoint" />
            <Array as="points">
              <mxPoint x="610" y="990" />
            </Array>
          </mxGeometry>
        </mxCell>
        <mxCell id="VdvJYBAursg_XjyD1ep1-73" style="edgeStyle=orthogonalEdgeStyle;rounded=0;orthogonalLoop=1;jettySize=auto;html=1;exitX=0;exitY=0.5;exitDx=0;exitDy=0;entryX=1;entryY=0.5;entryDx=0;entryDy=0;" parent="1" source="N0MODksUTJpH7KnRYEey-15" target="N0MODksUTJpH7KnRYEey-10" edge="1">
          <mxGeometry relative="1" as="geometry" />
        </mxCell>
        <mxCell id="N0MODksUTJpH7KnRYEey-15" value="has credit address" style="rhombus;whiteSpace=wrap;html=1;" parent="1" vertex="1">
          <mxGeometry x="740" y="1020" width="80" height="80" as="geometry" />
        </mxCell>
        <mxCell id="N0MODksUTJpH7KnRYEey-20" value="Renter Card Address" style="rounded=1;arcSize=10;whiteSpace=wrap;html=1;align=center;" parent="1" vertex="1">
          <mxGeometry x="900" y="1040" width="100" height="40" as="geometry" />
        </mxCell>
        <mxCell id="N0MODksUTJpH7KnRYEey-21" value="" style="endArrow=none;html=1;rounded=0;exitX=1;exitY=0.5;exitDx=0;exitDy=0;entryX=0;entryY=0.5;entryDx=0;entryDy=0;" parent="1" edge="1">
          <mxGeometry width="50" height="50" relative="1" as="geometry">
            <mxPoint x="820" y="1060" as="sourcePoint" />
            <mxPoint x="900" y="1060" as="targetPoint" />
          </mxGeometry>
        </mxCell>
        <mxCell id="N0MODksUTJpH7KnRYEey-25" style="edgeStyle=elbowEdgeStyle;rounded=0;orthogonalLoop=1;jettySize=auto;html=1;exitX=0.5;exitY=0;exitDx=0;exitDy=0;entryX=0.5;entryY=1;entryDx=0;entryDy=0;" parent="1" source="N0MODksUTJpH7KnRYEey-22" target="N0MODksUTJpH7KnRYEey-9" edge="1">
          <mxGeometry relative="1" as="geometry" />
        </mxCell>
        <mxCell id="N0MODksUTJpH7KnRYEey-22" value="manages" style="rhombus;whiteSpace=wrap;html=1;" parent="1" vertex="1">
          <mxGeometry x="170" y="1200" width="80" height="80" as="geometry" />
        </mxCell>
        <mxCell id="N0MODksUTJpH7KnRYEey-26" style="edgeStyle=elbowEdgeStyle;rounded=0;orthogonalLoop=1;jettySize=auto;html=1;exitX=0.5;exitY=0;exitDx=0;exitDy=0;entryX=0.5;entryY=1;entryDx=0;entryDy=0;" parent="1" source="N0MODksUTJpH7KnRYEey-23" target="N0MODksUTJpH7KnRYEey-10" edge="1">
          <mxGeometry relative="1" as="geometry" />
        </mxCell>
        <mxCell id="N0MODksUTJpH7KnRYEey-23" value="books" style="rhombus;whiteSpace=wrap;html=1;" parent="1" vertex="1">
          <mxGeometry x="570" y="1200" width="80" height="80" as="geometry" />
        </mxCell>
        <mxCell id="N0MODksUTJpH7KnRYEey-27" value="registers" style="rhombus;whiteSpace=wrap;html=1;" parent="1" vertex="1">
          <mxGeometry x="425" y="1080" width="80" height="80" as="geometry" />
        </mxCell>
        <mxCell id="N0MODksUTJpH7KnRYEey-30" value="" style="endArrow=none;html=1;rounded=0;entryX=0;entryY=0.5;entryDx=0;entryDy=0;exitX=0.5;exitY=0;exitDx=0;exitDy=0;" parent="1" source="N0MODksUTJpH7KnRYEey-27" target="N0MODksUTJpH7KnRYEey-10" edge="1">
          <mxGeometry width="50" height="50" relative="1" as="geometry">
            <mxPoint x="400" y="1150" as="sourcePoint" />
            <mxPoint x="450" y="1100" as="targetPoint" />
            <Array as="points">
              <mxPoint x="465" y="1060" />
            </Array>
          </mxGeometry>
        </mxCell>
        <mxCell id="N0MODksUTJpH7KnRYEey-32" value="" style="endArrow=none;html=1;rounded=0;exitX=0.5;exitY=0;exitDx=0;exitDy=0;entryX=0.5;entryY=1;entryDx=0;entryDy=0;" parent="1" target="N0MODksUTJpH7KnRYEey-27" edge="1">
          <mxGeometry width="50" height="50" relative="1" as="geometry">
            <mxPoint x="465" y="1220" as="sourcePoint" />
            <mxPoint x="450" y="1110" as="targetPoint" />
          </mxGeometry>
        </mxCell>
        <mxCell id="N0MODksUTJpH7KnRYEey-34" value="Property" style="rounded=1;arcSize=10;whiteSpace=wrap;html=1;align=center;" parent="1" vertex="1">
          <mxGeometry x="360" y="1400" width="100" height="40" as="geometry" />
        </mxCell>
        <mxCell id="N0MODksUTJpH7KnRYEey-35" value="" style="endArrow=none;html=1;rounded=0;exitX=0.5;exitY=1;exitDx=0;exitDy=0;entryX=0;entryY=0.5;entryDx=0;entryDy=0;" parent="1" source="N0MODksUTJpH7KnRYEey-22" target="N0MODksUTJpH7KnRYEey-34" edge="1">
          <mxGeometry width="50" height="50" relative="1" as="geometry">
            <mxPoint x="400" y="1310" as="sourcePoint" />
            <mxPoint x="450" y="1260" as="targetPoint" />
            <Array as="points">
              <mxPoint x="210" y="1420" />
            </Array>
          </mxGeometry>
        </mxCell>
        <mxCell id="N0MODksUTJpH7KnRYEey-38" value="has additional properties" style="rhombus;whiteSpace=wrap;html=1;" parent="1" vertex="1">
          <mxGeometry x="660" y="1380" width="100" height="100" as="geometry" />
        </mxCell>
        <mxCell id="N0MODksUTJpH7KnRYEey-40" value="Additional properties" style="rounded=1;arcSize=10;whiteSpace=wrap;html=1;align=center;" parent="1" vertex="1">
          <mxGeometry x="850" y="1410" width="100" height="40" as="geometry" />
        </mxCell>
        <mxCell id="N0MODksUTJpH7KnRYEey-41" value="" style="endArrow=none;html=1;rounded=0;exitX=1;exitY=0.5;exitDx=0;exitDy=0;entryX=0;entryY=0.5;entryDx=0;entryDy=0;" parent="1" source="N0MODksUTJpH7KnRYEey-38" target="N0MODksUTJpH7KnRYEey-40" edge="1">
          <mxGeometry width="50" height="50" relative="1" as="geometry">
            <mxPoint x="530" y="1300" as="sourcePoint" />
            <mxPoint x="580" y="1250" as="targetPoint" />
          </mxGeometry>
        </mxCell>
        <mxCell id="N0MODksUTJpH7KnRYEey-42" value="ISA" style="triangle;whiteSpace=wrap;html=1;direction=south;" parent="1" vertex="1">
          <mxGeometry x="370" y="1520" width="80" height="60" as="geometry" />
        </mxCell>
        <mxCell id="N0MODksUTJpH7KnRYEey-43" value="" style="shape=link;html=1;rounded=0;entryX=0;entryY=0.5;entryDx=0;entryDy=0;exitX=0.5;exitY=1;exitDx=0;exitDy=0;" parent="1" source="N0MODksUTJpH7KnRYEey-34" target="N0MODksUTJpH7KnRYEey-42" edge="1">
          <mxGeometry relative="1" as="geometry">
            <mxPoint x="370" y="1460" as="sourcePoint" />
            <mxPoint x="370" y="1500" as="targetPoint" />
            <Array as="points" />
          </mxGeometry>
        </mxCell>
        <mxCell id="N0MODksUTJpH7KnRYEey-44" value="" style="resizable=0;html=1;align=right;verticalAlign=bottom;" parent="N0MODksUTJpH7KnRYEey-43" connectable="0" vertex="1">
          <mxGeometry x="1" relative="1" as="geometry">
            <mxPoint x="-40" y="10" as="offset" />
          </mxGeometry>
        </mxCell>
        <mxCell id="N0MODksUTJpH7KnRYEey-45" value="Commercial Building" style="rounded=1;arcSize=10;whiteSpace=wrap;html=1;align=center;" parent="1" vertex="1">
          <mxGeometry x="580" y="1650" width="100" height="40" as="geometry" />
        </mxCell>
        <mxCell id="N0MODksUTJpH7KnRYEey-46" value="Apartment" style="rounded=1;arcSize=10;whiteSpace=wrap;html=1;align=center;" parent="1" vertex="1">
          <mxGeometry x="360" y="1650" width="100" height="40" as="geometry" />
        </mxCell>
        <mxCell id="N0MODksUTJpH7KnRYEey-47" value="House" style="rounded=1;arcSize=10;whiteSpace=wrap;html=1;align=center;" parent="1" vertex="1">
          <mxGeometry x="140" y="1650" width="100" height="40" as="geometry" />
        </mxCell>
        <mxCell id="N0MODksUTJpH7KnRYEey-48" value="" style="endArrow=none;html=1;rounded=0;exitX=0.5;exitY=0;exitDx=0;exitDy=0;entryX=0.5;entryY=1;entryDx=0;entryDy=0;" parent="1" source="N0MODksUTJpH7KnRYEey-47" target="N0MODksUTJpH7KnRYEey-42" edge="1">
          <mxGeometry width="50" height="50" relative="1" as="geometry">
            <mxPoint x="320" y="1630" as="sourcePoint" />
            <mxPoint x="370" y="1580" as="targetPoint" />
            <Array as="points">
              <mxPoint x="190" y="1550" />
            </Array>
          </mxGeometry>
        </mxCell>
        <mxCell id="N0MODksUTJpH7KnRYEey-49" value="" style="endArrow=none;html=1;rounded=0;exitX=0.5;exitY=0;exitDx=0;exitDy=0;entryX=0.5;entryY=0;entryDx=0;entryDy=0;" parent="1" source="N0MODksUTJpH7KnRYEey-45" target="N0MODksUTJpH7KnRYEey-42" edge="1">
          <mxGeometry width="50" height="50" relative="1" as="geometry">
            <mxPoint x="320" y="1630" as="sourcePoint" />
            <mxPoint x="370" y="1580" as="targetPoint" />
            <Array as="points">
              <mxPoint x="630" y="1550" />
            </Array>
          </mxGeometry>
        </mxCell>
        <mxCell id="N0MODksUTJpH7KnRYEey-50" value="" style="endArrow=none;html=1;rounded=0;entryX=1;entryY=0.5;entryDx=0;entryDy=0;exitX=0.5;exitY=0;exitDx=0;exitDy=0;" parent="1" source="N0MODksUTJpH7KnRYEey-46" target="N0MODksUTJpH7KnRYEey-42" edge="1">
          <mxGeometry width="50" height="50" relative="1" as="geometry">
            <mxPoint x="320" y="1630" as="sourcePoint" />
            <mxPoint x="370" y="1580" as="targetPoint" />
          </mxGeometry>
        </mxCell>
        <mxCell id="N0MODksUTJpH7KnRYEey-51" value="type=&#39;house&#39;" style="text;html=1;strokeColor=none;fillColor=none;align=center;verticalAlign=middle;whiteSpace=wrap;rounded=0;" parent="1" vertex="1">
          <mxGeometry x="220" y="1520" width="60" height="30" as="geometry" />
        </mxCell>
        <mxCell id="N0MODksUTJpH7KnRYEey-52" value="type=&#39;commercial building&#39;" style="text;html=1;strokeColor=none;fillColor=none;align=center;verticalAlign=middle;whiteSpace=wrap;rounded=0;" parent="1" vertex="1">
          <mxGeometry x="550" y="1520" width="60" height="30" as="geometry" />
        </mxCell>
        <mxCell id="N0MODksUTJpH7KnRYEey-53" value="type=&#39;Apartment&#39;" style="text;html=1;strokeColor=none;fillColor=none;align=center;verticalAlign=middle;whiteSpace=wrap;rounded=0;rotation=90;" parent="1" vertex="1">
          <mxGeometry x="400" y="1590" width="60" height="30" as="geometry" />
        </mxCell>
        <mxCell id="rLWm6Wrs7PpHjAK9i-ny-1" value="Renter Card Address" style="rounded=1;arcSize=10;whiteSpace=wrap;html=1;align=center;" parent="1" vertex="1">
          <mxGeometry x="905" y="1045" width="90" height="30" as="geometry" />
        </mxCell>
        <mxCell id="rLWm6Wrs7PpHjAK9i-ny-2" value="Reward Program" style="rounded=1;arcSize=10;whiteSpace=wrap;html=1;align=center;" parent="1" vertex="1">
          <mxGeometry x="417.5" y="1225" width="95" height="30" as="geometry" />
        </mxCell>
        <mxCell id="rLWm6Wrs7PpHjAK9i-ny-3" value="has credit address" style="rhombus;whiteSpace=wrap;html=1;" parent="1" vertex="1">
          <mxGeometry x="745" y="1030" width="70" height="60" as="geometry" />
        </mxCell>
        <mxCell id="rLWm6Wrs7PpHjAK9i-ny-4" value="registers" style="rhombus;whiteSpace=wrap;html=1;" parent="1" vertex="1">
          <mxGeometry x="432.5" y="1085" width="65" height="70" as="geometry" />
        </mxCell>
        <mxCell id="rLWm6Wrs7PpHjAK9i-ny-7" value="Neighbourhood" style="rounded=1;arcSize=10;whiteSpace=wrap;html=1;align=center;" parent="1" vertex="1">
          <mxGeometry x="1140" y="1410" width="100" height="40" as="geometry" />
        </mxCell>
        <mxCell id="rLWm6Wrs7PpHjAK9i-ny-9" style="edgeStyle=orthogonalEdgeStyle;rounded=0;orthogonalLoop=1;jettySize=auto;html=1;exitX=0;exitY=0.5;exitDx=0;exitDy=0;entryX=1;entryY=0.5;entryDx=0;entryDy=0;" parent="1" source="rLWm6Wrs7PpHjAK9i-ny-8" target="N0MODksUTJpH7KnRYEey-40" edge="1">
          <mxGeometry relative="1" as="geometry" />
        </mxCell>
        <mxCell id="rLWm6Wrs7PpHjAK9i-ny-8" value="has neighbourhood" style="rhombus;whiteSpace=wrap;html=1;" parent="1" vertex="1">
          <mxGeometry x="995" y="1380" width="100" height="100" as="geometry" />
        </mxCell>
        <mxCell id="rLWm6Wrs7PpHjAK9i-ny-10" value="" style="endArrow=none;html=1;rounded=0;entryX=0;entryY=0.5;entryDx=0;entryDy=0;exitX=1;exitY=0.5;exitDx=0;exitDy=0;" parent="1" source="rLWm6Wrs7PpHjAK9i-ny-8" target="rLWm6Wrs7PpHjAK9i-ny-7" edge="1">
          <mxGeometry width="50" height="50" relative="1" as="geometry">
            <mxPoint x="1100" y="1430" as="sourcePoint" />
            <mxPoint x="860" y="1440" as="targetPoint" />
          </mxGeometry>
        </mxCell>
        <mxCell id="rLWm6Wrs7PpHjAK9i-ny-11" value="Neighbourhood" style="rounded=1;arcSize=10;whiteSpace=wrap;html=1;align=center;" parent="1" vertex="1">
          <mxGeometry x="1145" y="1415" width="90" height="30" as="geometry" />
        </mxCell>
        <mxCell id="rLWm6Wrs7PpHjAK9i-ny-12" value="name" style="ellipse;whiteSpace=wrap;html=1;" parent="1" vertex="1">
          <mxGeometry x="270" y="810" width="90" height="40" as="geometry" />
        </mxCell>
        <mxCell id="rLWm6Wrs7PpHjAK9i-ny-13" value="&lt;u&gt;email&lt;/u&gt;" style="ellipse;whiteSpace=wrap;html=1;" parent="1" vertex="1">
          <mxGeometry x="460" y="810" width="90" height="40" as="geometry" />
        </mxCell>
        <mxCell id="rLWm6Wrs7PpHjAK9i-ny-14" value="" style="endArrow=none;html=1;rounded=0;entryX=0.404;entryY=1.004;entryDx=0;entryDy=0;entryPerimeter=0;exitX=1;exitY=0;exitDx=0;exitDy=0;" parent="1" source="N0MODksUTJpH7KnRYEey-1" target="rLWm6Wrs7PpHjAK9i-ny-13" edge="1">
          <mxGeometry width="50" height="50" relative="1" as="geometry">
            <mxPoint x="470" y="950" as="sourcePoint" />
            <mxPoint x="520" y="900" as="targetPoint" />
          </mxGeometry>
        </mxCell>
        <mxCell id="rLWm6Wrs7PpHjAK9i-ny-15" value="" style="endArrow=none;html=1;rounded=0;entryX=0.597;entryY=0.985;entryDx=0;entryDy=0;entryPerimeter=0;exitX=0;exitY=0;exitDx=0;exitDy=0;" parent="1" source="N0MODksUTJpH7KnRYEey-1" target="rLWm6Wrs7PpHjAK9i-ny-12" edge="1">
          <mxGeometry width="50" height="50" relative="1" as="geometry">
            <mxPoint x="470" y="950" as="sourcePoint" />
            <mxPoint x="520" y="900" as="targetPoint" />
          </mxGeometry>
        </mxCell>
        <mxCell id="rLWm6Wrs7PpHjAK9i-ny-19" value="agency" style="ellipse;whiteSpace=wrap;html=1;" parent="1" vertex="1">
          <mxGeometry x="90" y="1100" width="90" height="40" as="geometry" />
        </mxCell>
        <mxCell id="rLWm6Wrs7PpHjAK9i-ny-20" value="job_title" style="ellipse;whiteSpace=wrap;html=1;" parent="1" vertex="1">
          <mxGeometry x="240" y="1115" width="90" height="40" as="geometry" />
        </mxCell>
        <mxCell id="rLWm6Wrs7PpHjAK9i-ny-23" value="contact" style="ellipse;whiteSpace=wrap;html=1;" parent="1" vertex="1">
          <mxGeometry x="280" y="1060" width="90" height="40" as="geometry" />
        </mxCell>
        <mxCell id="rLWm6Wrs7PpHjAK9i-ny-26" value="" style="endArrow=none;html=1;rounded=0;entryX=0;entryY=0.5;entryDx=0;entryDy=0;exitX=1;exitY=0.75;exitDx=0;exitDy=0;" parent="1" source="N0MODksUTJpH7KnRYEey-9" target="rLWm6Wrs7PpHjAK9i-ny-23" edge="1">
          <mxGeometry width="50" height="50" relative="1" as="geometry">
            <mxPoint x="150" y="1030" as="sourcePoint" />
            <mxPoint x="200" y="980" as="targetPoint" />
          </mxGeometry>
        </mxCell>
        <mxCell id="rLWm6Wrs7PpHjAK9i-ny-27" value="" style="endArrow=none;html=1;rounded=0;entryX=0;entryY=0;entryDx=0;entryDy=0;exitX=0.75;exitY=1;exitDx=0;exitDy=0;" parent="1" source="N0MODksUTJpH7KnRYEey-9" target="rLWm6Wrs7PpHjAK9i-ny-20" edge="1">
          <mxGeometry width="50" height="50" relative="1" as="geometry">
            <mxPoint x="150" y="1030" as="sourcePoint" />
            <mxPoint x="200" y="980" as="targetPoint" />
          </mxGeometry>
        </mxCell>
        <mxCell id="rLWm6Wrs7PpHjAK9i-ny-28" value="" style="endArrow=none;html=1;rounded=0;exitX=0.5;exitY=0;exitDx=0;exitDy=0;entryX=0.25;entryY=1;entryDx=0;entryDy=0;" parent="1" source="rLWm6Wrs7PpHjAK9i-ny-19" target="N0MODksUTJpH7KnRYEey-9" edge="1">
          <mxGeometry width="50" height="50" relative="1" as="geometry">
            <mxPoint x="150" y="1030" as="sourcePoint" />
            <mxPoint x="200" y="980" as="targetPoint" />
          </mxGeometry>
        </mxCell>
        <mxCell id="VdvJYBAursg_XjyD1ep1-1" value="disjoint" style="text;html=1;strokeColor=none;fillColor=none;align=center;verticalAlign=middle;whiteSpace=wrap;rounded=0;" parent="1" vertex="1">
          <mxGeometry x="445" y="960" width="60" height="30" as="geometry" />
        </mxCell>
        <mxCell id="VdvJYBAursg_XjyD1ep1-2" value="" style="endArrow=none;html=1;rounded=0;entryX=0.5;entryY=1;entryDx=0;entryDy=0;exitX=1;exitY=0.25;exitDx=0;exitDy=0;" parent="1" source="N0MODksUTJpH7KnRYEey-34" target="N0MODksUTJpH7KnRYEey-23" edge="1">
          <mxGeometry width="50" height="50" relative="1" as="geometry">
            <mxPoint x="510" y="1260" as="sourcePoint" />
            <mxPoint x="560" y="1210" as="targetPoint" />
            <Array as="points">
              <mxPoint x="610" y="1410" />
            </Array>
          </mxGeometry>
        </mxCell>
        <mxCell id="VdvJYBAursg_XjyD1ep1-3" value="move_in_date" style="ellipse;whiteSpace=wrap;html=1;" parent="1" vertex="1">
          <mxGeometry x="620" y="1130" width="90" height="40" as="geometry" />
        </mxCell>
        <mxCell id="VdvJYBAursg_XjyD1ep1-4" value="prefered_location" style="ellipse;whiteSpace=wrap;html=1;" parent="1" vertex="1">
          <mxGeometry x="515" y="1100" width="90" height="40" as="geometry" />
        </mxCell>
        <mxCell id="VdvJYBAursg_XjyD1ep1-5" value="budget" style="ellipse;whiteSpace=wrap;html=1;" parent="1" vertex="1">
          <mxGeometry x="450" y="1010" width="90" height="40" as="geometry" />
        </mxCell>
        <mxCell id="VdvJYBAursg_XjyD1ep1-7" value="" style="endArrow=none;html=1;rounded=0;entryX=0.75;entryY=1;entryDx=0;entryDy=0;exitX=0.5;exitY=0;exitDx=0;exitDy=0;" parent="1" source="VdvJYBAursg_XjyD1ep1-3" target="N0MODksUTJpH7KnRYEey-10" edge="1">
          <mxGeometry width="50" height="50" relative="1" as="geometry">
            <mxPoint x="510" y="1260" as="sourcePoint" />
            <mxPoint x="560" y="1210" as="targetPoint" />
          </mxGeometry>
        </mxCell>
        <mxCell id="VdvJYBAursg_XjyD1ep1-8" value="" style="endArrow=none;html=1;rounded=0;entryX=0.25;entryY=1;entryDx=0;entryDy=0;exitX=0.5;exitY=0;exitDx=0;exitDy=0;" parent="1" source="VdvJYBAursg_XjyD1ep1-4" target="N0MODksUTJpH7KnRYEey-10" edge="1">
          <mxGeometry width="50" height="50" relative="1" as="geometry">
            <mxPoint x="510" y="1260" as="sourcePoint" />
            <mxPoint x="560" y="1210" as="targetPoint" />
          </mxGeometry>
        </mxCell>
        <mxCell id="VdvJYBAursg_XjyD1ep1-9" value="" style="endArrow=none;html=1;rounded=0;entryX=0;entryY=0;entryDx=0;entryDy=0;exitX=1;exitY=0.5;exitDx=0;exitDy=0;" parent="1" source="VdvJYBAursg_XjyD1ep1-5" target="N0MODksUTJpH7KnRYEey-10" edge="1">
          <mxGeometry width="50" height="50" relative="1" as="geometry">
            <mxPoint x="510" y="1260" as="sourcePoint" />
            <mxPoint x="560" y="1210" as="targetPoint" />
          </mxGeometry>
        </mxCell>
        <mxCell id="VdvJYBAursg_XjyD1ep1-11" value="payment_address" style="ellipse;whiteSpace=wrap;html=1;" parent="1" vertex="1">
          <mxGeometry x="840" y="980" width="100" height="40" as="geometry" />
        </mxCell>
        <mxCell id="VdvJYBAursg_XjyD1ep1-12" value="credit_card" style="ellipse;whiteSpace=wrap;html=1;" parent="1" vertex="1">
          <mxGeometry x="970" y="980" width="90" height="40" as="geometry" />
        </mxCell>
        <mxCell id="VdvJYBAursg_XjyD1ep1-13" value="" style="endArrow=none;html=1;rounded=0;entryX=0.5;entryY=1;entryDx=0;entryDy=0;exitX=0.25;exitY=0;exitDx=0;exitDy=0;" parent="1" source="N0MODksUTJpH7KnRYEey-20" target="VdvJYBAursg_XjyD1ep1-11" edge="1">
          <mxGeometry width="50" height="50" relative="1" as="geometry">
            <mxPoint x="660" y="1210" as="sourcePoint" />
            <mxPoint x="710" y="1160" as="targetPoint" />
          </mxGeometry>
        </mxCell>
        <mxCell id="VdvJYBAursg_XjyD1ep1-14" value="" style="endArrow=none;html=1;rounded=0;entryX=0.5;entryY=1;entryDx=0;entryDy=0;exitX=1;exitY=0;exitDx=0;exitDy=0;" parent="1" source="N0MODksUTJpH7KnRYEey-20" target="VdvJYBAursg_XjyD1ep1-12" edge="1">
          <mxGeometry width="50" height="50" relative="1" as="geometry">
            <mxPoint x="660" y="1210" as="sourcePoint" />
            <mxPoint x="710" y="1160" as="targetPoint" />
          </mxGeometry>
        </mxCell>
        <mxCell id="VdvJYBAursg_XjyD1ep1-15" value="&lt;u&gt;property_id&lt;/u&gt;" style="ellipse;whiteSpace=wrap;html=1;" parent="1" vertex="1">
          <mxGeometry x="260" y="1340" width="90" height="40" as="geometry" />
        </mxCell>
        <mxCell id="VdvJYBAursg_XjyD1ep1-16" value="type" style="ellipse;whiteSpace=wrap;html=1;" parent="1" vertex="1">
          <mxGeometry x="355" y="1320" width="90" height="40" as="geometry" />
        </mxCell>
        <mxCell id="VdvJYBAursg_XjyD1ep1-18" value="address" style="ellipse;whiteSpace=wrap;html=1;" parent="1" vertex="1">
          <mxGeometry x="230" y="1430" width="90" height="40" as="geometry" />
        </mxCell>
        <mxCell id="VdvJYBAursg_XjyD1ep1-19" value="price" style="ellipse;whiteSpace=wrap;html=1;" parent="1" vertex="1">
          <mxGeometry x="310" y="1470" width="90" height="40" as="geometry" />
        </mxCell>
        <mxCell id="VdvJYBAursg_XjyD1ep1-20" value="availability" style="ellipse;whiteSpace=wrap;html=1;" parent="1" vertex="1">
          <mxGeometry x="420" y="1470" width="90" height="40" as="geometry" />
        </mxCell>
        <mxCell id="VdvJYBAursg_XjyD1ep1-21" value="" style="endArrow=none;html=1;rounded=0;exitX=0.5;exitY=1;exitDx=0;exitDy=0;entryX=0.5;entryY=0;entryDx=0;entryDy=0;" parent="1" source="VdvJYBAursg_XjyD1ep1-16" target="N0MODksUTJpH7KnRYEey-34" edge="1">
          <mxGeometry width="50" height="50" relative="1" as="geometry">
            <mxPoint x="460" y="1300" as="sourcePoint" />
            <mxPoint x="510" y="1250" as="targetPoint" />
          </mxGeometry>
        </mxCell>
        <mxCell id="VdvJYBAursg_XjyD1ep1-23" value="" style="endArrow=none;html=1;rounded=0;exitX=1;exitY=1;exitDx=0;exitDy=0;entryX=0.25;entryY=0;entryDx=0;entryDy=0;" parent="1" source="VdvJYBAursg_XjyD1ep1-15" target="N0MODksUTJpH7KnRYEey-34" edge="1">
          <mxGeometry width="50" height="50" relative="1" as="geometry">
            <mxPoint x="460" y="1300" as="sourcePoint" />
            <mxPoint x="510" y="1250" as="targetPoint" />
          </mxGeometry>
        </mxCell>
        <mxCell id="VdvJYBAursg_XjyD1ep1-24" value="" style="endArrow=none;html=1;rounded=0;exitX=1;exitY=0.5;exitDx=0;exitDy=0;entryX=0;entryY=1;entryDx=0;entryDy=0;" parent="1" source="VdvJYBAursg_XjyD1ep1-18" target="N0MODksUTJpH7KnRYEey-34" edge="1">
          <mxGeometry width="50" height="50" relative="1" as="geometry">
            <mxPoint x="460" y="1300" as="sourcePoint" />
            <mxPoint x="510" y="1250" as="targetPoint" />
          </mxGeometry>
        </mxCell>
        <mxCell id="VdvJYBAursg_XjyD1ep1-25" value="" style="endArrow=none;html=1;rounded=0;exitX=0.5;exitY=0;exitDx=0;exitDy=0;entryX=0.25;entryY=1;entryDx=0;entryDy=0;" parent="1" source="VdvJYBAursg_XjyD1ep1-19" target="N0MODksUTJpH7KnRYEey-34" edge="1">
          <mxGeometry width="50" height="50" relative="1" as="geometry">
            <mxPoint x="460" y="1300" as="sourcePoint" />
            <mxPoint x="510" y="1250" as="targetPoint" />
          </mxGeometry>
        </mxCell>
        <mxCell id="VdvJYBAursg_XjyD1ep1-26" value="" style="endArrow=none;html=1;rounded=0;exitX=0.5;exitY=0;exitDx=0;exitDy=0;entryX=0.75;entryY=1;entryDx=0;entryDy=0;" parent="1" source="VdvJYBAursg_XjyD1ep1-20" target="N0MODksUTJpH7KnRYEey-34" edge="1">
          <mxGeometry width="50" height="50" relative="1" as="geometry">
            <mxPoint x="460" y="1300" as="sourcePoint" />
            <mxPoint x="510" y="1250" as="targetPoint" />
          </mxGeometry>
        </mxCell>
        <mxCell id="VdvJYBAursg_XjyD1ep1-28" value="" style="endArrow=none;dashed=1;html=1;rounded=0;exitX=0.222;exitY=0.75;exitDx=0;exitDy=0;exitPerimeter=0;" parent="1" edge="1">
          <mxGeometry width="50" height="50" relative="1" as="geometry">
            <mxPoint x="990" y="1009" as="sourcePoint" />
            <mxPoint x="1040" y="1009" as="targetPoint" />
          </mxGeometry>
        </mxCell>
        <mxCell id="VdvJYBAursg_XjyD1ep1-30" value="number of rooms" style="ellipse;whiteSpace=wrap;html=1;" parent="1" vertex="1">
          <mxGeometry x="145" y="1720" width="90" height="40" as="geometry" />
        </mxCell>
        <mxCell id="VdvJYBAursg_XjyD1ep1-33" value="" style="endArrow=none;html=1;rounded=0;exitX=0.5;exitY=0;exitDx=0;exitDy=0;entryX=0.5;entryY=1;entryDx=0;entryDy=0;" parent="1" source="VdvJYBAursg_XjyD1ep1-30" target="N0MODksUTJpH7KnRYEey-47" edge="1">
          <mxGeometry width="50" height="50" relative="1" as="geometry">
            <mxPoint x="110" y="1670" as="sourcePoint" />
            <mxPoint x="150" y="1670" as="targetPoint" />
          </mxGeometry>
        </mxCell>
        <mxCell id="VdvJYBAursg_XjyD1ep1-36" value="building_type" style="ellipse;whiteSpace=wrap;html=1;" parent="1" vertex="1">
          <mxGeometry x="460" y="1710" width="90" height="40" as="geometry" />
        </mxCell>
        <mxCell id="VdvJYBAursg_XjyD1ep1-37" value="number of rooms" style="ellipse;whiteSpace=wrap;html=1;" parent="1" vertex="1">
          <mxGeometry x="340" y="1720" width="90" height="40" as="geometry" />
        </mxCell>
        <mxCell id="VdvJYBAursg_XjyD1ep1-39" value="" style="endArrow=none;html=1;rounded=0;exitX=0;exitY=0;exitDx=0;exitDy=0;entryX=0.75;entryY=1;entryDx=0;entryDy=0;" parent="1" source="VdvJYBAursg_XjyD1ep1-36" target="N0MODksUTJpH7KnRYEey-46" edge="1">
          <mxGeometry width="50" height="50" relative="1" as="geometry">
            <mxPoint x="430" y="1500" as="sourcePoint" />
            <mxPoint x="480" y="1450" as="targetPoint" />
          </mxGeometry>
        </mxCell>
        <mxCell id="VdvJYBAursg_XjyD1ep1-41" value="" style="endArrow=none;html=1;rounded=0;exitX=0.25;exitY=1;exitDx=0;exitDy=0;entryX=0.5;entryY=0;entryDx=0;entryDy=0;" parent="1" source="N0MODksUTJpH7KnRYEey-46" target="VdvJYBAursg_XjyD1ep1-37" edge="1">
          <mxGeometry width="50" height="50" relative="1" as="geometry">
            <mxPoint x="377" y="1644" as="sourcePoint" />
            <mxPoint x="405" y="1670" as="targetPoint" />
          </mxGeometry>
        </mxCell>
        <mxCell id="VdvJYBAursg_XjyD1ep1-45" value="type_of_business" style="ellipse;whiteSpace=wrap;html=1;" parent="1" vertex="1">
          <mxGeometry x="580" y="1730" width="110" height="40" as="geometry" />
        </mxCell>
        <mxCell id="VdvJYBAursg_XjyD1ep1-46" value="" style="endArrow=none;html=1;rounded=0;entryX=0.455;entryY=0;entryDx=0;entryDy=0;exitX=0.5;exitY=1;exitDx=0;exitDy=0;entryPerimeter=0;" parent="1" source="N0MODksUTJpH7KnRYEey-45" target="VdvJYBAursg_XjyD1ep1-45" edge="1">
          <mxGeometry width="50" height="50" relative="1" as="geometry">
            <mxPoint x="430" y="1500" as="sourcePoint" />
            <mxPoint x="480" y="1450" as="targetPoint" />
          </mxGeometry>
        </mxCell>
        <mxCell id="VdvJYBAursg_XjyD1ep1-51" value="state" style="ellipse;whiteSpace=wrap;html=1;" parent="1" vertex="1">
          <mxGeometry x="200" y="1480" width="90" height="40" as="geometry" />
        </mxCell>
        <mxCell id="VdvJYBAursg_XjyD1ep1-52" value="city" style="ellipse;whiteSpace=wrap;html=1;" parent="1" vertex="1">
          <mxGeometry x="90" y="1440" width="90" height="40" as="geometry" />
        </mxCell>
        <mxCell id="VdvJYBAursg_XjyD1ep1-53" value="location" style="ellipse;whiteSpace=wrap;html=1;" parent="1" vertex="1">
          <mxGeometry x="100" y="1380" width="90" height="40" as="geometry" />
        </mxCell>
        <mxCell id="VdvJYBAursg_XjyD1ep1-54" value="" style="endArrow=none;html=1;rounded=0;exitX=1;exitY=1;exitDx=0;exitDy=0;entryX=0;entryY=0;entryDx=0;entryDy=0;" parent="1" source="VdvJYBAursg_XjyD1ep1-53" target="VdvJYBAursg_XjyD1ep1-18" edge="1">
          <mxGeometry width="50" height="50" relative="1" as="geometry">
            <mxPoint x="330" y="1500" as="sourcePoint" />
            <mxPoint x="380" y="1450" as="targetPoint" />
          </mxGeometry>
        </mxCell>
        <mxCell id="VdvJYBAursg_XjyD1ep1-55" value="" style="endArrow=none;html=1;rounded=0;exitX=1;exitY=0.5;exitDx=0;exitDy=0;entryX=0;entryY=0.5;entryDx=0;entryDy=0;" parent="1" source="VdvJYBAursg_XjyD1ep1-52" target="VdvJYBAursg_XjyD1ep1-18" edge="1">
          <mxGeometry width="50" height="50" relative="1" as="geometry">
            <mxPoint x="187" y="1424" as="sourcePoint" />
            <mxPoint x="253" y="1446" as="targetPoint" />
          </mxGeometry>
        </mxCell>
        <mxCell id="VdvJYBAursg_XjyD1ep1-56" value="" style="endArrow=none;html=1;rounded=0;exitX=0.5;exitY=0;exitDx=0;exitDy=0;entryX=0.25;entryY=0.958;entryDx=0;entryDy=0;entryPerimeter=0;" parent="1" source="VdvJYBAursg_XjyD1ep1-51" target="VdvJYBAursg_XjyD1ep1-18" edge="1">
          <mxGeometry width="50" height="50" relative="1" as="geometry">
            <mxPoint x="330" y="1500" as="sourcePoint" />
            <mxPoint x="280" y="1470" as="targetPoint" />
          </mxGeometry>
        </mxCell>
        <mxCell id="VdvJYBAursg_XjyD1ep1-57" value="crime_rate" style="ellipse;whiteSpace=wrap;html=1;" parent="1" vertex="1">
          <mxGeometry x="765" y="1340" width="90" height="40" as="geometry" />
        </mxCell>
        <mxCell id="VdvJYBAursg_XjyD1ep1-58" value="school" style="ellipse;whiteSpace=wrap;html=1;" parent="1" vertex="1">
          <mxGeometry x="880" y="1340" width="90" height="40" as="geometry" />
        </mxCell>
        <mxCell id="VdvJYBAursg_XjyD1ep1-59" value="land" style="ellipse;whiteSpace=wrap;html=1;" parent="1" vertex="1">
          <mxGeometry x="1150" y="1340" width="90" height="40" as="geometry" />
        </mxCell>
        <mxCell id="VdvJYBAursg_XjyD1ep1-60" value="" style="endArrow=none;html=1;rounded=0;exitX=0;exitY=0;exitDx=0;exitDy=0;entryX=0.5;entryY=1;entryDx=0;entryDy=0;" parent="1" source="N0MODksUTJpH7KnRYEey-40" target="VdvJYBAursg_XjyD1ep1-57" edge="1">
          <mxGeometry width="50" height="50" relative="1" as="geometry">
            <mxPoint x="800" y="1400" as="sourcePoint" />
            <mxPoint x="850" y="1350" as="targetPoint" />
          </mxGeometry>
        </mxCell>
        <mxCell id="VdvJYBAursg_XjyD1ep1-61" value="" style="endArrow=none;html=1;rounded=0;exitX=0.5;exitY=0;exitDx=0;exitDy=0;entryX=0.5;entryY=1;entryDx=0;entryDy=0;" parent="1" source="N0MODksUTJpH7KnRYEey-40" target="VdvJYBAursg_XjyD1ep1-58" edge="1">
          <mxGeometry width="50" height="50" relative="1" as="geometry">
            <mxPoint x="860" y="1420" as="sourcePoint" />
            <mxPoint x="825" y="1390" as="targetPoint" />
          </mxGeometry>
        </mxCell>
        <mxCell id="VdvJYBAursg_XjyD1ep1-62" value="" style="endArrow=none;html=1;rounded=0;exitX=0.5;exitY=0;exitDx=0;exitDy=0;entryX=0.5;entryY=1;entryDx=0;entryDy=0;" parent="1" source="rLWm6Wrs7PpHjAK9i-ny-7" target="VdvJYBAursg_XjyD1ep1-59" edge="1">
          <mxGeometry width="50" height="50" relative="1" as="geometry">
            <mxPoint x="870" y="1430" as="sourcePoint" />
            <mxPoint x="835" y="1400" as="targetPoint" />
          </mxGeometry>
        </mxCell>
        <mxCell id="VdvJYBAursg_XjyD1ep1-64" value="" style="endArrow=none;dashed=1;html=1;rounded=0;entryX=0.778;entryY=0.75;entryDx=0;entryDy=0;entryPerimeter=0;exitX=0.222;exitY=0.75;exitDx=0;exitDy=0;exitPerimeter=0;" parent="1" source="VdvJYBAursg_XjyD1ep1-59" target="VdvJYBAursg_XjyD1ep1-59" edge="1">
          <mxGeometry width="50" height="50" relative="1" as="geometry">
            <mxPoint x="800" y="1400" as="sourcePoint" />
            <mxPoint x="850" y="1350" as="targetPoint" />
          </mxGeometry>
        </mxCell>
        <mxCell id="VdvJYBAursg_XjyD1ep1-65" value="&lt;h1&gt;ER MODEL&lt;/h1&gt;" style="text;html=1;strokeColor=none;fillColor=none;spacing=5;spacingTop=-20;whiteSpace=wrap;overflow=hidden;rounded=0;" parent="1" vertex="1">
          <mxGeometry x="340" y="710" width="190" height="120" as="geometry" />
        </mxCell>
        <mxCell id="VdvJYBAursg_XjyD1ep1-66" value="&lt;h1&gt;REAL-ESTATE MANAGEMENT SYSTEM&lt;/h1&gt;" style="text;html=1;strokeColor=none;fillColor=none;spacing=5;spacingTop=-20;whiteSpace=wrap;overflow=hidden;rounded=0;" parent="1" vertex="1">
          <mxGeometry x="195" y="750" width="475" height="120" as="geometry" />
        </mxCell>
        <mxCell id="VdvJYBAursg_XjyD1ep1-67" value="Keerthana Nakka&lt;br&gt;A20523716" style="text;html=1;strokeColor=none;fillColor=none;align=center;verticalAlign=middle;whiteSpace=wrap;rounded=0;" parent="1" vertex="1">
          <mxGeometry x="1020" y="690" width="100" height="30" as="geometry" />
        </mxCell>
        <mxCell id="VdvJYBAursg_XjyD1ep1-68" value="Chandrahas Motor&lt;br&gt;A20523718" style="text;html=1;strokeColor=none;fillColor=none;align=center;verticalAlign=middle;whiteSpace=wrap;rounded=0;" parent="1" vertex="1">
          <mxGeometry x="1015" y="760" width="110" height="30" as="geometry" />
        </mxCell>
        <mxCell id="VdvJYBAursg_XjyD1ep1-69" value="disjoint" style="text;html=1;strokeColor=none;fillColor=none;align=center;verticalAlign=middle;whiteSpace=wrap;rounded=0;" parent="1" vertex="1">
          <mxGeometry x="437.5" y="1520" width="60" height="30" as="geometry" />
        </mxCell>
        <mxCell id="VdvJYBAursg_XjyD1ep1-70" value="Additional properties" style="rounded=1;arcSize=10;whiteSpace=wrap;html=1;align=center;" parent="1" vertex="1">
          <mxGeometry x="855" y="1415" width="90" height="30" as="geometry" />
        </mxCell>
        <mxCell id="VdvJYBAursg_XjyD1ep1-71" value="has additional properties" style="rhombus;whiteSpace=wrap;html=1;" parent="1" vertex="1">
          <mxGeometry x="667.5" y="1382.5" width="85" height="95" as="geometry" />
        </mxCell>
        <mxCell id="VdvJYBAursg_XjyD1ep1-72" value="has neighbourhood" style="rhombus;whiteSpace=wrap;html=1;" parent="1" vertex="1">
          <mxGeometry x="1002.5" y="1385" width="85" height="90" as="geometry" />
        </mxCell>
        <mxCell id="VdvJYBAursg_XjyD1ep1-74" value="&lt;u&gt;program_id&lt;/u&gt;" style="ellipse;whiteSpace=wrap;html=1;" parent="1" vertex="1">
          <mxGeometry x="310" y="1185" width="90" height="45" as="geometry" />
        </mxCell>
        <mxCell id="VdvJYBAursg_XjyD1ep1-75" value="" style="endArrow=none;html=1;rounded=0;exitX=1;exitY=1;exitDx=0;exitDy=0;entryX=0;entryY=0.5;entryDx=0;entryDy=0;" parent="1" source="VdvJYBAursg_XjyD1ep1-74" target="rLWm6Wrs7PpHjAK9i-ny-2" edge="1">
          <mxGeometry width="50" height="50" relative="1" as="geometry">
            <mxPoint x="540" y="1240" as="sourcePoint" />
            <mxPoint x="415" y="1240" as="targetPoint" />
          </mxGeometry>
        </mxCell>
        <mxCell id="VdvJYBAursg_XjyD1ep1-76" value="reward_point_count" style="ellipse;whiteSpace=wrap;html=1;" parent="1" vertex="1">
          <mxGeometry x="290" y="1250" width="110" height="40" as="geometry" />
        </mxCell>
        <mxCell id="VdvJYBAursg_XjyD1ep1-77" value="" style="endArrow=none;html=1;rounded=0;exitX=1;exitY=0.5;exitDx=0;exitDy=0;entryX=0;entryY=1;entryDx=0;entryDy=0;" parent="1" source="VdvJYBAursg_XjyD1ep1-76" target="rLWm6Wrs7PpHjAK9i-ny-2" edge="1">
          <mxGeometry width="50" height="50" relative="1" as="geometry">
            <mxPoint x="540" y="1240" as="sourcePoint" />
            <mxPoint x="415" y="1260" as="targetPoint" />
          </mxGeometry>
        </mxCell>
        <mxCell id="VdvJYBAursg_XjyD1ep1-78" value="description" style="ellipse;whiteSpace=wrap;html=1;" parent="1" vertex="1">
          <mxGeometry x="470" y="1345" width="90" height="40" as="geometry" />
        </mxCell>
        <mxCell id="VdvJYBAursg_XjyD1ep1-79" value="" style="endArrow=none;html=1;rounded=0;exitX=0.75;exitY=0;exitDx=0;exitDy=0;entryX=0;entryY=0.5;entryDx=0;entryDy=0;" parent="1" source="N0MODksUTJpH7KnRYEey-34" target="VdvJYBAursg_XjyD1ep1-78" edge="1">
          <mxGeometry width="50" height="50" relative="1" as="geometry">
            <mxPoint x="410" y="1360" as="sourcePoint" />
            <mxPoint x="460" y="1310" as="targetPoint" />
          </mxGeometry>
        </mxCell>
        <mxCell id="VdvJYBAursg_XjyD1ep1-80" value="square footage" style="ellipse;whiteSpace=wrap;html=1;" parent="1" vertex="1">
          <mxGeometry x="490" y="1437.5" width="90" height="40" as="geometry" />
        </mxCell>
        <mxCell id="VdvJYBAursg_XjyD1ep1-81" value="" style="endArrow=none;html=1;rounded=0;entryX=1;entryY=1;entryDx=0;entryDy=0;exitX=0;exitY=0.5;exitDx=0;exitDy=0;" parent="1" source="VdvJYBAursg_XjyD1ep1-80" target="N0MODksUTJpH7KnRYEey-34" edge="1">
          <mxGeometry width="50" height="50" relative="1" as="geometry">
            <mxPoint x="450" y="1580" as="sourcePoint" />
            <mxPoint x="500" y="1530" as="targetPoint" />
          </mxGeometry>
        </mxCell>
        <mxCell id="VdvJYBAursg_XjyD1ep1-82" value="" style="endArrow=none;html=1;rounded=0;exitX=1;exitY=0.75;exitDx=0;exitDy=0;entryX=0;entryY=0.5;entryDx=0;entryDy=0;" parent="1" source="N0MODksUTJpH7KnRYEey-34" target="N0MODksUTJpH7KnRYEey-38" edge="1">
          <mxGeometry width="50" height="50" relative="1" as="geometry">
            <mxPoint x="510" y="1290" as="sourcePoint" />
            <mxPoint x="560" y="1240" as="targetPoint" />
          </mxGeometry>
        </mxCell>
        <mxCell id="VdvJYBAursg_XjyD1ep1-93" value="" style="endArrow=none;dashed=1;html=1;rounded=0;entryX=0.778;entryY=0.75;entryDx=0;entryDy=0;entryPerimeter=0;" parent="1" target="VdvJYBAursg_XjyD1ep1-57" edge="1">
          <mxGeometry width="50" height="50" relative="1" as="geometry">
            <mxPoint x="790" y="1370" as="sourcePoint" />
            <mxPoint x="760" y="1290" as="targetPoint" />
          </mxGeometry>
        </mxCell>
        <mxCell id="VdvJYBAursg_XjyD1ep1-94" value="" style="endArrow=none;dashed=1;html=1;rounded=0;entryX=0.778;entryY=0.75;entryDx=0;entryDy=0;entryPerimeter=0;" parent="1" edge="1">
          <mxGeometry width="50" height="50" relative="1" as="geometry">
            <mxPoint x="900" y="1370" as="sourcePoint" />
            <mxPoint x="945" y="1370" as="targetPoint" />
          </mxGeometry>
        </mxCell>
        <mxCell id="VdvJYBAursg_XjyD1ep1-95" value="vacation_home" style="ellipse;whiteSpace=wrap;html=1;" parent="1" vertex="1">
          <mxGeometry x="1250" y="1340" width="100" height="40" as="geometry" />
        </mxCell>
        <mxCell id="VdvJYBAursg_XjyD1ep1-96" value="" style="endArrow=none;dashed=1;html=1;rounded=0;entryX=0.778;entryY=0.75;entryDx=0;entryDy=0;entryPerimeter=0;exitX=0.222;exitY=0.75;exitDx=0;exitDy=0;exitPerimeter=0;" parent="1" edge="1">
          <mxGeometry width="50" height="50" relative="1" as="geometry">
            <mxPoint x="1270" y="1370" as="sourcePoint" />
            <mxPoint x="1320" y="1370" as="targetPoint" />
          </mxGeometry>
        </mxCell>
        <mxCell id="VdvJYBAursg_XjyD1ep1-97" value="" style="endArrow=none;html=1;rounded=0;entryX=0.217;entryY=0.958;entryDx=0;entryDy=0;entryPerimeter=0;exitX=1;exitY=0;exitDx=0;exitDy=0;" parent="1" source="rLWm6Wrs7PpHjAK9i-ny-7" target="VdvJYBAursg_XjyD1ep1-95" edge="1">
          <mxGeometry width="50" height="50" relative="1" as="geometry">
            <mxPoint x="970" y="1340" as="sourcePoint" />
            <mxPoint x="1020" y="1290" as="targetPoint" />
          </mxGeometry>
        </mxCell>
        <mxCell id="VdvJYBAursg_XjyD1ep1-98" value="address" style="ellipse;whiteSpace=wrap;html=1;" parent="1" vertex="1">
          <mxGeometry x="365" y="825" width="90" height="40" as="geometry" />
        </mxCell>
        <mxCell id="VdvJYBAursg_XjyD1ep1-99" value="address" style="ellipse;whiteSpace=wrap;html=1;" parent="1" vertex="1">
          <mxGeometry x="373.75" y="830" width="72.5" height="30" as="geometry" />
        </mxCell>
        <mxCell id="VdvJYBAursg_XjyD1ep1-100" value="" style="endArrow=none;html=1;rounded=0;exitX=0.5;exitY=0;exitDx=0;exitDy=0;entryX=0.5;entryY=1;entryDx=0;entryDy=0;" parent="1" source="N0MODksUTJpH7KnRYEey-1" target="VdvJYBAursg_XjyD1ep1-98" edge="1">
          <mxGeometry width="50" height="50" relative="1" as="geometry">
            <mxPoint x="500" y="880" as="sourcePoint" />
            <mxPoint x="550" y="830" as="targetPoint" />
          </mxGeometry>
        </mxCell>
        <mxCell id="VdvJYBAursg_XjyD1ep1-102" value="" style="endArrow=none;dashed=1;html=1;rounded=0;entryX=0.778;entryY=0.75;entryDx=0;entryDy=0;entryPerimeter=0;" parent="1" edge="1">
          <mxGeometry width="50" height="50" relative="1" as="geometry">
            <mxPoint x="800" y="1380" as="sourcePoint" />
            <mxPoint x="845" y="1380" as="targetPoint" />
          </mxGeometry>
        </mxCell>
        <mxCell id="VdvJYBAursg_XjyD1ep1-105" value="" style="endArrow=none;html=1;rounded=0;entryX=0;entryY=0.75;entryDx=0;entryDy=0;exitX=0.875;exitY=0.625;exitDx=0;exitDy=0;exitPerimeter=0;" parent="1" source="N0MODksUTJpH7KnRYEey-15" target="N0MODksUTJpH7KnRYEey-20" edge="1">
          <mxGeometry width="50" height="50" relative="1" as="geometry">
            <mxPoint x="640" y="1190" as="sourcePoint" />
            <mxPoint x="690" y="1140" as="targetPoint" />
          </mxGeometry>
        </mxCell>
        <mxCell id="VdvJYBAursg_XjyD1ep1-106" value="" style="endArrow=none;html=1;rounded=0;exitX=0.944;exitY=0.551;exitDx=0;exitDy=0;exitPerimeter=0;entryX=-0.007;entryY=0.643;entryDx=0;entryDy=0;entryPerimeter=0;" parent="1" source="N0MODksUTJpH7KnRYEey-38" target="N0MODksUTJpH7KnRYEey-40" edge="1">
          <mxGeometry width="50" height="50" relative="1" as="geometry">
            <mxPoint x="750" y="1438" as="sourcePoint" />
            <mxPoint x="850" y="1430" as="targetPoint" />
          </mxGeometry>
        </mxCell>
        <mxCell id="VdvJYBAursg_XjyD1ep1-107" value="" style="endArrow=none;html=1;rounded=0;entryX=-0.008;entryY=0.591;entryDx=0;entryDy=0;entryPerimeter=0;exitX=0.966;exitY=0.54;exitDx=0;exitDy=0;exitPerimeter=0;" parent="1" source="rLWm6Wrs7PpHjAK9i-ny-8" target="rLWm6Wrs7PpHjAK9i-ny-7" edge="1">
          <mxGeometry width="50" height="50" relative="1" as="geometry">
            <mxPoint x="1100" y="1434" as="sourcePoint" />
            <mxPoint x="1140" y="1430" as="targetPoint" />
          </mxGeometry>
        </mxCell>
        <mxCell id="VdvJYBAursg_XjyD1ep1-110" value="" style="endArrow=none;html=1;rounded=0;entryX=0;entryY=0.25;entryDx=0;entryDy=0;" parent="1" target="N0MODksUTJpH7KnRYEey-34" edge="1">
          <mxGeometry width="50" height="50" relative="1" as="geometry">
            <mxPoint x="220" y="1270" as="sourcePoint" />
            <mxPoint x="350" y="1410" as="targetPoint" />
            <Array as="points">
              <mxPoint x="220" y="1410" />
            </Array>
          </mxGeometry>
        </mxCell>
        <mxCell id="q0psY4kKhWrFSdYYqNe--4" value="" style="endArrow=none;html=1;rounded=0;exitX=1;exitY=0.5;exitDx=0;exitDy=0;" edge="1" parent="1" source="N0MODksUTJpH7KnRYEey-23">
          <mxGeometry width="50" height="50" relative="1" as="geometry">
            <mxPoint x="759" y="1293" as="sourcePoint" />
            <mxPoint x="950" y="1078" as="targetPoint" />
            <Array as="points">
              <mxPoint x="950" y="1243" />
            </Array>
          </mxGeometry>
        </mxCell>
      </root>
    </mxGraphModel>
  </diagram>
</mxfile>
